<svg xmlns="http://www.w3.org/2000/svg" viewBox="0 0 560 288"><defs><style>.cls-1{fill:#4e365a;}.cls-2{fill:#a976c5;}.cls-3{fill:#7f5994;}.cls-4{fill:#722a2d;}.cls-5{fill:#e3545a;}.cls-6{fill:#e9767b;}.cls-7{fill:#aa3f44;}</style></defs><title>1Artboard 1</title><g id="Layer_19" data-name="Layer 19"><rect class="cls-1" x="323.09" y="109.02" width="167.57" height="47.92"/><rect class="cls-1" x="287.08" y="109.02" width="55.7" height="47.92" rx="10.48"/><rect class="cls-1" x="466.59" y="109.02" width="55.39" height="47.92" rx="10.48"/></g><g id="Layer_14" data-name="Layer 14"><g id="Layer_7" data-name="Layer 7"><rect class="cls-1" x="109.01" y="45.26" width="125.02" height="77.21" rx="17.11"/><rect class="cls-1" x="151.61" y="45.26" width="336.66" height="77.21"/><rect class="cls-1" x="441.47" y="45.26" width="92.9" height="77.21" rx="17.11"/></g><g id="Layer_8" data-name="Layer 8"><rect class="cls-2" x="115.92" y="53.01" width="121.27" height="63.36" rx="12.66"/><rect class="cls-2" x="157.25" y="53.01" width="326.56" height="63.36"/><rect class="cls-2" x="438.41" y="53.01" width="90.11" height="63.36" rx="12.75"/></g><g id="Layer_9" data-name="Layer 9"><rect class="cls-1" x="124.43" y="61.09" width="115.96" height="47.93" rx="12.66"/><rect class="cls-1" x="163.94" y="61.09" width="312.25" height="47.93"/><rect class="cls-1" x="432.79" y="61.09" width="86.16" height="47.93" rx="12.75"/></g></g><g id="Layer_6" data-name="Layer 6"><g id="Layer_3" data-name="Layer 3"><ellipse class="cls-1" cx="99.02" cy="116.13" rx="76.32" ry="75.62"/></g><g id="Layer_2" data-name="Layer 2"><ellipse class="cls-2" cx="99.18" cy="115.97" rx="70.22" ry="70.71"/></g><g id="Layer_4" data-name="Layer 4"><path class="cls-3" d="M99.18,116H169.4c0,38.79-31.7,70.71-70.22,70.71S29,154.76,29,116v-.13Z"/></g><g id="Layer_5" data-name="Layer 5"><ellipse class="cls-1" cx="98.72" cy="114.94" rx="59.61" ry="60.02"/></g></g><g id="Layer_18" data-name="Layer 18"><g id="Layer_15_copy" data-name="Layer 15 copy"><path class="cls-4" d="M98.67,162.91l-34-35c-14.36-12.94-13.76-33.11-5.47-41,8.45-8.07,28.57-7,39.82,9.47,9.91-15.67,29.3-17.76,38.5-9.51s9.73,28-3.94,40.18Z"/></g><g id="Layer_15" data-name="Layer 15"><path class="cls-5" d="M99.31,160.73,66.51,127C52.69,114.53,53,95.34,60.83,87.89c8-7.57,27.11-6.3,38,9.51,9.26-14.8,27.7-16.55,36.55-8.58S145,115.6,132.11,127Z"/></g><g id="Layer_16" data-name="Layer 16"><path class="cls-6" d="M140,115c1.44-12.45-5.85-23.57-16-26.26-7.53-2-15.86.9-21.6,7.25-.85,1.46-2.15,3.13-3.78,3.18-1.85.06-3.15-2-4.23-3.3C88.36,88.34,76.91,88,75.1,88c-3.11-.09-6.26-.18-9.42,1.8-5,3.11-6.39,9.12-7.33,13a32.81,32.81,0,0,0-.65,11.38,28.79,28.79,0,0,1-2.24-12.48A20.21,20.21,0,0,1,58.27,91.2a17.5,17.5,0,0,1,5-5.13,22.4,22.4,0,0,1,5.59-2.16c9-2.14,16.57,2,18.61,3.1a34.08,34.08,0,0,1,6,4.26,33.71,33.71,0,0,1,2.66,2.67s1,1.09,1.89,2.32a7.73,7.73,0,0,1,.46.63c.21.33.25.5.36.51s.27-.33.45-.7a13.87,13.87,0,0,1,.81-1.15,32.46,32.46,0,0,1,2.5-3,29.38,29.38,0,0,1,5.08-4.18A26,26,0,0,1,120,84.21a25.54,25.54,0,0,1,8.66.9,19.9,19.9,0,0,1,10,7.84,21.66,21.66,0,0,1,3.18,12.36A26,26,0,0,1,140,115Z"/><path class="cls-7" d="M120.84,138.43c-5.57,6.07-7.25,7.9-9.81,10.48-2,2-6.58,6.57-8.35,8.46-.63.68-1.33,1.27-1.92,2-.74.9-1,1.36-1.45,1.39-.69,0-1.23-.94-1.71-1.67-1-1.54-2.54-2.61-3.76-4-1.53-1.68-2.15-2.23-8-8.2,0,0-2.7-2.77-8.1-8.31L66.51,127a86.07,86.07,0,0,1,17.22,13.72c3.08,3.21,5.22,6,9.13,6.89,5.22,1.22,10-1.69,13-3.61,13.21-8.41,26.06-19.18,32.36-24.64C133.28,124.83,127.5,131.15,120.84,138.43Z"/></g></g></svg>